<?xml version="1.0" encoding="utf-8"?>
<!-- Generator: Adobe Illustrator 16.0.0, SVG Export Plug-In . SVG Version: 6.00 Build 0)  -->
<!DOCTYPE svg PUBLIC "-//W3C//DTD SVG 1.1//EN" "http://www.w3.org/Graphics/SVG/1.1/DTD/svg11.dtd">
<svg version="1.1" id="Layer_1" xmlns="http://www.w3.org/2000/svg" xmlns:xlink="http://www.w3.org/1999/xlink" x="0px" y="0px"
	 width="1280px" height="800px" viewBox="0 0 1280 800" enable-background="new 0 0 1280 800" xml:space="preserve">
<g>
	<linearGradient id="SVGID_2_" gradientUnits="userSpaceOnUse" x1="283.9775" y1="373" x2="508.4087" y2="373">
		<stop  offset="0.4587" style="stop-color:#FF7C00"/>
		<stop  offset="0.8462" style="stop-color:#FFA700"/>
		<stop  offset="1" style="stop-color:#FFB900"/>
	</linearGradient>
	<path fill="url(#SVGID_2_)" d="M420.552,473.504c-0.549,1.26-2.029,2.496-3.301,2.496H285.49c-1.272,0-1.855-1.236-1.306-2.496
		l87.644-200.962c0.55-1.261,2.069-2.542,3.342-2.542h131.761c1.271,0,1.813,1.281,1.265,2.542L420.552,473.504z"/>
	<path fill="#FFC200" d="M467.081,473.504c-0.549,1.26-2.027,2.496-3.301,2.496h-164.93l89.68-206h123.637l30.297,30.628
		L467.081,473.504z"/>
	<g>
		<defs>
			<path id="SVGID_70_" d="M467.081,473.504c-0.549,1.26-2.027,2.496-3.301,2.496h-164.93l89.68-206h123.637l30.297,30.628
				L467.081,473.504z"/>
		</defs>
		<clipPath id="SVGID_4_">
			<use xlink:href="#SVGID_70_"  overflow="visible"/>
		</clipPath>
		<path clip-path="url(#SVGID_4_)" fill="#FFFFFF" d="M508.094,338.653c-0.749,1.648-2.692,3.347-4.341,3.347H394.088
			c-1.648,0-2.378-1.698-1.63-3.347l3.98-8.721c0.75-1.649,2.692-2.933,4.34-2.933h109.666c1.649,0,2.378,1.283,1.629,2.933
			L508.094,338.653z"/>
		<path clip-path="url(#SVGID_4_)" fill="#FFFFFF" d="M469.139,369.587c-0.749,1.648-2.691,3.413-4.341,3.413H355.134
			c-1.648,0-2.379-1.765-1.631-3.413l3.981-8.186c0.748-1.65,2.691-2.401,4.34-2.401h109.665c1.648,0,2.379,0.751,1.631,2.401
			L469.139,369.587z"/>
		<path clip-path="url(#SVGID_4_)" fill="#FFFFFF" d="M430.184,400.289c-0.748,1.649-2.69,3.711-4.34,3.711H316.179
			c-1.648,0-2.379-2.062-1.631-3.711l3.981-8.036c0.749-1.648,2.692-2.253,4.341-2.253h109.664c1.648,0,2.379,0.604,1.63,2.253
			L430.184,400.289z"/>
		<path clip-path="url(#SVGID_4_)" fill="#FFFFFF" d="M391.229,430.225c-0.749,1.646-2.691,2.775-4.34,2.775H277.224
			c-1.648,0-2.379-1.129-1.63-2.775l3.98-9.006c0.75-1.648,2.692-3.219,4.341-3.219H393.58c1.648,0,2.379,1.57,1.63,3.219
			L391.229,430.225z"/>
		<path clip-path="url(#SVGID_4_)" fill="#FFFFFF" d="M429.007,430.225c-0.749,1.646-2.691,2.775-4.34,2.775h-18.908
			c-1.648,0-2.378-1.129-1.63-2.775l3.98-9.006c0.749-1.648,2.691-3.219,4.341-3.219h18.908c1.647,0,2.378,1.57,1.629,3.219
			L429.007,430.225z"/>
	</g>
	<g>
		<defs>
			<polygon id="SVGID_72_" points="298.851,476 131.616,476 218.193,300.836 375.229,300.892 			"/>
		</defs>
		<clipPath id="SVGID_5_">
			<use xlink:href="#SVGID_72_"  overflow="visible"/>
		</clipPath>
		<linearGradient id="SVGID_6_" gradientUnits="userSpaceOnUse" x1="163.1968" y1="468.5" x2="329.9316" y2="468.5">
			<stop  offset="0.3963" style="stop-color:#FF7C00"/>
			<stop  offset="0.672" style="stop-color:#FF9500"/>
			<stop  offset="1" style="stop-color:#FFB900"/>
		</linearGradient>
		<path clip-path="url(#SVGID_5_)" fill="url(#SVGID_6_)" d="M325.657,472.915c-0.749,1.649-2.693,3.085-4.341,3.085H165.12
			c-1.647,0-2.378-1.436-1.63-3.085l3.98-8.851c0.749-1.649,2.692-3.064,4.341-3.064h156.196c1.648,0,2.378,1.415,1.63,3.064
			L325.657,472.915z"/>
		<linearGradient id="SVGID_7_" gradientUnits="userSpaceOnUse" x1="270.0269" y1="397" x2="390.2319" y2="397">
			<stop  offset="0.2449" style="stop-color:#FF7C00"/>
			<stop  offset="0.4192" style="stop-color:#FF8300"/>
			<stop  offset="0.6699" style="stop-color:#FF9600"/>
			<stop  offset="0.9656" style="stop-color:#FFB500"/>
			<stop  offset="1" style="stop-color:#FFB900"/>
		</linearGradient>
		<path clip-path="url(#SVGID_5_)" fill="url(#SVGID_7_)" d="M385.957,400.289c-0.749,1.649-2.692,3.711-4.341,3.711H271.952
			c-1.649,0-2.38-2.062-1.631-3.711l3.981-8.036c0.748-1.648,2.691-2.253,4.34-2.253h109.664c1.65,0,2.38,0.604,1.631,2.253
			L385.957,400.289z"/>
		<linearGradient id="SVGID_9_" gradientUnits="userSpaceOnUse" x1="221.334" y1="425.5" x2="341.5386" y2="425.5">
			<stop  offset="0" style="stop-color:#FF7C00"/>
			<stop  offset="0.4545" style="stop-color:#FF7C00"/>
			<stop  offset="1" style="stop-color:#FFB900"/>
		</linearGradient>
		<path clip-path="url(#SVGID_5_)" fill="url(#SVGID_9_)" d="M337.264,430.225c-0.749,1.646-2.691,2.775-4.34,2.775H223.259
			c-1.649,0-2.379-1.129-1.631-2.775l3.981-9.006c0.749-1.648,2.691-3.219,4.34-3.219h109.665c1.648,0,2.379,1.57,1.63,3.219
			L337.264,430.225z"/>
		<path clip-path="url(#SVGID_5_)" fill="#FFFFFF" d="M352.991,426.611c-0.748,1.649-2.691,2.389-4.34,2.389h-18.907
			c-1.649,0-2.38-0.739-1.63-2.389l3.98-8.2c0.748-1.646,2.691-2.411,4.34-2.411h18.907c1.649,0,2.379,0.765,1.631,2.411
			L352.991,426.611z"/>
	</g>
	<path fill="#FF7C00" d="M542.464,300.631l-40.906,0.373c-1.272,0-1.854-0.271-1.306-1.529l11.915-29.471L542.464,300.631z"/>
</g>
<path fill="#F1F6F8" d="M599.047,363.258h-24.803v-93.219h55.091v20.213h-30.288v17.787h27.93v20.215h-27.93V363.258z"/>
<path fill="#F1F6F8" d="M706.262,363.258l-4.592-17.469h-30.287l-4.717,17.469h-27.674l30.413-93.604h33.603l30.799,93.604H706.262z
	 M696.44,325.131l-4.018-15.305c-0.934-3.4-2.07-7.799-3.411-13.199c-1.337-5.398-2.222-9.266-2.646-11.604
	c-0.382,2.168-1.137,5.736-2.263,10.711c-1.127,4.975-3.626,14.771-7.491,29.396H696.44z"/>
<path fill="#F1F6F8" d="M815.741,334.949c0,5.779-1.466,10.914-4.398,15.396c-2.933,4.486-7.163,7.973-12.688,10.459
	c-5.526,2.486-12.011,3.729-19.449,3.729c-6.207,0-11.412-0.432-15.62-1.307c-4.212-0.869-8.59-2.391-13.137-4.559v-22.443
	c4.803,2.467,9.798,4.391,14.983,5.77c5.186,1.383,9.947,2.072,14.283,2.072c3.741,0,6.482-0.648,8.228-1.945
	c1.741-1.295,2.612-2.965,2.612-5.004c0-1.275-0.35-2.391-1.053-3.348c-0.7-0.957-1.828-1.922-3.378-2.9
	c-1.553-0.979-5.686-2.977-12.402-5.996c-6.079-2.762-10.637-5.439-13.679-8.033c-3.038-2.592-5.291-5.566-6.758-8.928
	c-1.465-3.357-2.199-7.332-2.199-11.922c0-8.588,3.125-15.281,9.371-20.086c6.251-4.805,14.838-7.205,25.762-7.205
	c9.65,0,19.49,2.232,29.521,6.695l-7.713,19.447c-8.715-3.996-16.239-5.994-22.574-5.994c-3.273,0-5.654,0.574-7.141,1.721
	c-1.487,1.148-2.231,2.574-2.231,4.273c0,1.828,0.946,3.465,2.837,4.91c1.892,1.445,7.024,4.08,15.398,7.906
	c8.035,3.615,13.614,7.492,16.738,11.637C814.181,323.439,815.741,328.658,815.741,334.949z"/>
<path fill="#F1F6F8" d="M881.585,363.258h-25.188v-72.623h-22.763v-20.596h70.647v20.596h-22.697V363.258z"/>
<path fill="#F1F6F8" d="M585.085,475.641h-10.841v-93.223h51.968v9.629h-41.127v34.115h38.641v9.627h-38.641V475.641z"/>
<path fill="#F1F6F8" d="M728.819,428.902c0,14.92-3.774,26.652-11.318,35.199c-7.544,8.543-18.035,12.814-31.465,12.814
	c-13.734,0-24.326-4.197-31.787-12.592c-7.46-8.395-11.19-20.246-11.19-35.549c0-15.176,3.739-26.939,11.224-35.293
	c7.479-8.354,18.107-12.531,31.878-12.531c13.391,0,23.85,4.254,31.373,12.756C725.059,402.207,728.819,413.939,728.819,428.902z
	 M654.536,428.902c0,12.625,2.688,22.199,8.066,28.727c5.376,6.525,13.187,9.787,23.434,9.787c10.329,0,18.129-3.252,23.398-9.756
	c5.273-6.504,7.91-16.09,7.91-28.758c0-12.539-2.627-22.051-7.879-28.533c-5.248-6.482-13.015-9.725-23.306-9.725
	c-10.327,0-18.182,3.264-23.558,9.789C657.225,406.957,654.536,416.447,654.536,428.902z"/>
<path fill="#F1F6F8" d="M761.828,436.873v38.768h-10.84v-93.223h25.569c11.435,0,19.885,2.191,25.346,6.57
	c5.462,4.377,8.195,10.967,8.195,19.766c0,12.328-6.248,20.658-18.748,24.994l25.315,41.893h-12.815l-22.575-38.768H761.828z
	 M761.828,427.562h14.858c7.65,0,13.262-1.518,16.832-4.559c3.571-3.037,5.355-7.598,5.355-13.676
	c0-6.164-1.815-10.605-5.452-13.326c-3.633-2.721-9.47-4.082-17.501-4.082h-14.093V427.562z"/>
<path fill="#F1F6F8" d="M877.147,475.641l-31.629-82.637h-0.509c0.593,6.547,0.894,14.324,0.894,23.338v59.299h-10.013v-93.223
	h16.324l29.521,76.9h0.512l29.778-76.9h16.196v93.223h-10.84v-60.064c0-6.885,0.296-14.367,0.894-22.443h-0.512l-31.882,82.508
	H877.147z"/>
<path fill="#F1F6F8" d="M1009.478,450.838c0,8.205-2.977,14.6-8.928,19.193c-5.952,4.59-14.028,6.885-24.23,6.885
	c-11.053,0-19.556-1.422-25.506-4.271v-10.457c3.825,1.615,7.992,2.891,12.497,3.824c4.506,0.938,8.97,1.404,13.39,1.404
	c7.226,0,12.668-1.369,16.325-4.111c3.655-2.742,5.483-6.559,5.483-11.447c0-3.23-0.649-5.875-1.942-7.939
	c-1.3-2.061-3.468-3.963-6.508-5.707c-3.037-1.742-7.658-3.719-13.867-5.93c-8.673-3.102-14.867-6.779-18.586-11.029
	c-3.72-4.252-5.579-9.797-5.579-16.643c0-7.184,2.699-12.902,8.098-17.152c5.395-4.25,12.541-6.377,21.424-6.377
	c9.269,0,17.789,1.701,25.569,5.102l-3.382,9.438c-7.693-3.23-15.174-4.848-22.442-4.848c-5.739,0-10.226,1.234-13.456,3.699
	c-3.229,2.465-4.842,5.889-4.842,10.268c0,3.23,0.594,5.875,1.783,7.938c1.188,2.062,3.199,3.953,6.027,5.674
	c2.825,1.723,7.15,3.625,12.975,5.705c9.777,3.488,16.504,7.229,20.181,11.225S1009.478,444.461,1009.478,450.838z"/>
</svg>
