<svg width="48" height="48" viewBox="0 0 48 48" fill="none" xmlns="http://www.w3.org/2000/svg">
<rect x="1" y="1" width="46" height="46" rx="23" fill="#F2F2F7"/>
<path d="M25.2656 25H27.1641V22.5215H28.9131V20.7549H27.1641V12.3174H24.3604C22.6113 14.9453 20.748 17.8984 19.0781 20.7637V22.5215H25.2656V25ZM20.9678 20.6758C22.2686 18.4785 23.8154 16.0615 25.1777 14.0488H25.292V20.7988H20.9678V20.6758Z" fill="#232333"/>
<path d="M20.6094 33.9868V33.3579H18.5381V34.1338H19.6079L19.6045 34.2227C19.584 34.8174 19.1157 35.2173 18.439 35.2173C17.6255 35.2173 17.1128 34.5747 17.1128 33.5186C17.1128 32.4829 17.6016 31.8506 18.3979 31.8506C18.9722 31.8506 19.3857 32.1411 19.5396 32.6401H20.5649C20.4214 31.6147 19.5635 30.9414 18.3979 30.9414C16.9624 30.9414 16.0566 31.9395 16.0566 33.5288C16.0566 35.1421 16.9556 36.1265 18.4219 36.1265C19.7686 36.1265 20.6094 35.3062 20.6094 33.9868ZM27.6914 36V31.0679H26.6592V33.0571H24.4375V31.0679H23.4053V36H24.4375V33.939H26.6592V36H27.6914ZM31.7246 36V31.0679H30.6924V36H31.7246Z" fill="#232333"/>
</svg>
