<svg width="48" height="48" viewBox="0 0 48 48" fill="none" xmlns="http://www.w3.org/2000/svg">
<rect x="1" y="1" width="46" height="46" rx="23" fill="#F2F2F7"/>
<path d="M19.7021 16.0264H21.5654C21.5654 14.6465 22.5059 13.7148 23.9385 13.7148C25.3447 13.7148 26.1797 14.6289 26.1797 15.833C26.1797 16.835 25.7578 17.4502 24.1494 19.1025L19.8076 23.5762V25H28.3506V23.2334H22.4971V23.084L25.292 20.333C27.5156 18.1357 28.1572 17.0986 28.1572 15.6309C28.1572 13.5303 26.4434 12.0098 24.0615 12.0098C21.5039 12.0098 19.7021 13.6621 19.7021 16.0264Z" fill="#232333"/>
<path d="M18.3774 36H19.4951L17.7827 31.0679H16.5693L14.8569 36H15.8926L16.272 34.8242H18.0049L18.3774 36ZM17.1128 32.0933H17.1743L17.7861 34.0278H16.4941L17.1128 32.0933ZM24.3555 36C25.4082 36 26.061 35.4531 26.061 34.5884C26.061 33.9526 25.5859 33.4604 24.9331 33.4126V33.3511C25.439 33.2759 25.8252 32.8213 25.8252 32.2983C25.8252 31.5361 25.2544 31.0679 24.2974 31.0679H22.1406V36H24.3555ZM23.1729 31.8574H24.0342C24.5264 31.8574 24.8101 32.0933 24.8101 32.4863C24.8101 32.8828 24.5059 33.1118 23.9487 33.1118H23.1729V31.8574ZM23.1729 35.2104V33.8091H24.0684C24.6768 33.8091 25.0083 34.0483 25.0083 34.4995C25.0083 34.9609 24.687 35.2104 24.0923 35.2104H23.1729ZM30.894 36.1265C32.0835 36.1265 32.9517 35.3916 33.0371 34.3252H32.0322C31.9331 34.8687 31.4888 35.2173 30.8975 35.2173C30.1182 35.2173 29.6362 34.5713 29.6362 33.5322C29.6362 32.4932 30.1182 31.8506 30.894 31.8506C31.4819 31.8506 31.9297 32.2231 32.0288 32.7905H33.0337C32.9585 31.7173 32.063 30.9414 30.894 30.9414C29.4619 30.9414 28.5801 31.9292 28.5801 33.5322C28.5801 35.1387 29.4653 36.1265 30.894 36.1265Z" fill="#232333"/>
</svg>
