<svg width="48" height="48" viewBox="0 0 48 48" fill="none" xmlns="http://www.w3.org/2000/svg">
<rect x="1" y="1" width="46" height="46" rx="23" fill="#F2F2F7"/>
<path d="M23.9912 25.3076C26.8125 25.3076 28.7637 23.7959 28.7637 21.5986C28.7637 19.9639 27.6914 18.6807 26.0654 18.373V18.2236C27.4014 17.8809 28.2451 16.7998 28.2451 15.4287C28.2451 13.4248 26.4785 12.0098 23.9912 12.0098C21.5039 12.0098 19.7373 13.4248 19.7373 15.4287C19.7373 16.791 20.5986 17.8896 21.917 18.2236V18.373C20.291 18.707 19.2275 19.9902 19.2275 21.6074C19.2275 23.7959 21.1699 25.3076 23.9912 25.3076ZM23.9912 23.6729C22.3652 23.6729 21.2402 22.7588 21.2402 21.4404C21.2402 20.1133 22.3652 19.1992 23.9912 19.1992C25.6172 19.1992 26.7422 20.1133 26.7422 21.4404C26.7422 22.7588 25.6172 23.6729 23.9912 23.6729ZM23.9912 17.5908C22.6113 17.5908 21.6797 16.791 21.6797 15.6221C21.6797 14.4355 22.6025 13.627 23.9912 13.627C25.3799 13.627 26.3115 14.4355 26.3115 15.6221C26.3115 16.791 25.3711 17.5908 23.9912 17.5908Z" fill="#232333"/>
<path d="M17.5229 36V31.9497H19.0029V31.0679H15.0107V31.9497H16.4907V36H17.5229ZM22.749 31.0679H21.7168V34.2979C21.7168 35.3916 22.5234 36.1265 23.7847 36.1265C25.0459 36.1265 25.8491 35.3916 25.8491 34.2979V31.0679H24.8169V34.1919C24.8169 34.814 24.4443 35.2104 23.7847 35.2104C23.125 35.2104 22.749 34.814 22.749 34.1919V31.0679ZM31.4136 36L33.0576 31.0679H31.9468L30.8462 34.8379H30.7847L29.6636 31.0679H28.498L30.166 36H31.4136Z" fill="#232333"/>
</svg>
