<svg width="48" height="48" viewBox="0 0 48 48" fill="none" xmlns="http://www.w3.org/2000/svg">
<rect x="1" y="1" width="46" height="46" rx="23" fill="#F2F2F7"/>
<path d="M23.7451 25.3076C26.918 25.3076 28.7725 22.7852 28.7725 18.4873C28.7725 14.2598 26.7334 12.0098 23.8242 12.0098C21.1348 12.0098 19.2275 13.8467 19.2275 16.4395C19.2275 18.874 20.9854 20.6582 23.4023 20.6582C24.9053 20.6582 26.1182 19.9551 26.7246 18.7422H26.874C26.8213 21.8271 25.7051 23.5586 23.7627 23.5586C22.6025 23.5586 21.6973 22.9434 21.3984 21.9326H19.4121C19.79 23.9805 21.4951 25.3076 23.7451 25.3076ZM23.833 18.9971C22.2686 18.9971 21.1875 17.916 21.1875 16.3691C21.1875 14.8838 22.3301 13.7412 23.8506 13.7412C25.3623 13.7412 26.5049 14.8926 26.5049 16.4131C26.5049 17.916 25.3887 18.9971 23.833 18.9971Z" fill="#232333"/>
<path d="M13.8623 32.7358H13.917L14.8501 36H15.8174L17.1265 31.0679H16.0601L15.2979 34.5439H15.2432L14.3271 31.0679H13.4556L12.5566 34.5439H12.502L11.7329 31.0679H10.6597L11.9653 36H12.9395L13.8623 32.7358ZM19.5327 36H20.647L21.7202 34.3286H21.7817L22.8413 36H24.0171L22.4175 33.5322L24.041 31.0679H22.8857L21.8467 32.7939H21.7852L20.7563 31.0679H19.543L21.1084 33.5151L19.5327 36ZM29.1406 36V34.1851L30.8564 31.0679H29.7388L28.6553 33.1323H28.5938L27.5068 31.0679H26.3892L28.1084 34.1851V36H29.1406ZM33.3721 36H37.1797V35.1182H34.6367V35.0566L37.1113 31.7617V31.0679H33.4302V31.9497H35.8535V32.0112L33.3721 35.3027V36Z" fill="#232333"/>
</svg>
