<svg width="48" height="48" viewBox="0 0 48 48" fill="none" xmlns="http://www.w3.org/2000/svg">
<rect x="1" y="1" width="46" height="46" rx="23" fill="#F2F2F7"/>
<path d="M22.3916 19.2959H23.9736C25.626 19.2959 26.6455 20.1133 26.6455 21.4316C26.6455 22.7061 25.5557 23.5674 24 23.5674C22.4619 23.5674 21.3984 22.7852 21.2842 21.5723H19.3945C19.5 23.8311 21.3457 25.3076 24.0264 25.3076C26.6719 25.3076 28.667 23.7256 28.667 21.5635C28.667 19.8232 27.5771 18.6982 25.8896 18.4434V18.2939C27.2168 17.9336 28.1748 16.9229 28.1836 15.3848C28.1924 13.5742 26.707 12.0098 24.0879 12.0098C21.416 12.0098 19.7637 13.5479 19.6318 15.7363H21.4951C21.6094 14.4355 22.5322 13.7061 23.9736 13.7061C25.3975 13.7061 26.2412 14.5674 26.2412 15.6572C26.2412 16.8438 25.292 17.6787 23.9209 17.6787H22.3916V19.2959Z" fill="#232333"/>
<path d="M15.9062 31.0679V36H17.8477C19.3242 36 20.1616 35.1011 20.1616 33.498C20.1616 31.9531 19.314 31.0679 17.8477 31.0679H15.9062ZM16.9385 31.9497H17.6836C18.5791 31.9497 19.1089 32.5171 19.1089 33.5151C19.1089 34.5576 18.5962 35.1182 17.6836 35.1182H16.9385V31.9497ZM26.2148 35.1182H23.9795V33.9185H26.0884V33.1016H23.9795V31.9497H26.2148V31.0679H22.9473V36H26.2148V35.1182ZM30.1387 36V34.0791H32.145V33.2349H30.1387V31.9497H32.3364V31.0679H29.1064V36H30.1387Z" fill="#232333"/>
</svg>
