<svg width="48" height="48" viewBox="0 0 48 48" fill="none" xmlns="http://www.w3.org/2000/svg">
<rect x="1" y="1" width="46" height="46" rx="23" fill="#F2F2F7"/>
<path fill-rule="evenodd" clip-rule="evenodd" d="M19.5557 16.8889C19.5557 16.398 19.9536 16 20.4446 16C20.9355 16 21.3334 16.398 21.3334 16.8889V31.1111C21.3334 31.602 20.9355 32 20.4446 32C19.9536 32 19.5557 31.602 19.5557 31.1111V16.8889Z" fill="#232333"/>
<path fill-rule="evenodd" clip-rule="evenodd" d="M26.6665 16.8889C26.6665 16.398 27.0645 16 27.5554 16C28.0463 16 28.4443 16.398 28.4443 16.8889V31.1111C28.4443 31.602 28.0463 32 27.5554 32C27.0645 32 26.6665 31.602 26.6665 31.1111V16.8889Z" fill="#232333"/>
<path fill-rule="evenodd" clip-rule="evenodd" d="M31.1111 19.5557C31.602 19.5557 32 19.9536 32 20.4446C32 20.9355 31.602 21.3334 31.1111 21.3334L16.8889 21.3334C16.398 21.3334 16 20.9355 16 20.4446C16 19.9536 16.398 19.5557 16.8889 19.5557L31.1111 19.5557Z" fill="#232333"/>
<path fill-rule="evenodd" clip-rule="evenodd" d="M31.1111 26.6667C31.602 26.6667 32 27.0647 32 27.5556C32 28.0466 31.602 28.4445 31.1111 28.4445L16.8889 28.4445C16.398 28.4445 16 28.0466 16 27.5556C16 27.0647 16.398 26.6667 16.8889 26.6667L31.1111 26.6667Z" fill="#232333"/>
</svg>
