<svg width="48" height="48" viewBox="0 0 48 48" fill="none" xmlns="http://www.w3.org/2000/svg">
<rect x="1" y="1" width="46" height="46" rx="23" fill="#F2F2F7"/>
<path d="M24.167 25.3076C26.8564 25.3076 28.7637 23.4619 28.7637 20.8779C28.7637 18.4346 27.0059 16.6592 24.5977 16.6592C23.0947 16.6592 21.873 17.3535 21.2666 18.5664H21.1172C21.1523 15.4287 22.3125 13.75 24.29 13.75C25.4854 13.75 26.3555 14.3477 26.6016 15.3936H28.5791C28.2627 13.3545 26.6279 12.0098 24.2461 12.0098C21.1611 12.0098 19.2275 14.5234 19.2275 18.8213C19.2275 23.1455 21.3105 25.3076 24.167 25.3076ZM24.1494 23.5762C22.6377 23.5762 21.4863 22.4072 21.4863 20.8867C21.4863 19.3838 22.6025 18.2939 24.167 18.2939C25.7314 18.2939 26.8125 19.3838 26.8125 20.9307C26.8125 22.4248 25.6611 23.5762 24.1494 23.5762Z" fill="#232333"/>
<path d="M19.3618 36V31.0679H18.1484L16.7812 34.397H16.7197L15.356 31.0679H14.1392V36H15.0962V32.7017H15.1509L16.4087 35.7334H17.0957L18.3501 32.7017H18.4048V36H19.3618ZM23.3506 36V32.9136H23.4121L25.6885 36H26.543V31.0679H25.5552V34.1406H25.4937L23.2241 31.0679H22.3628V36H23.3506ZM31.7041 30.9414C30.2515 30.9414 29.3286 31.9326 29.3286 33.5322C29.3286 35.1318 30.2378 36.1265 31.7041 36.1265C33.1602 36.1265 34.0762 35.1318 34.0762 33.5322C34.0762 31.936 33.1567 30.9414 31.7041 30.9414ZM31.7041 31.8472C32.5039 31.8472 33.02 32.5 33.02 33.5322C33.02 34.561 32.5073 35.2207 31.7041 35.2207C30.8906 35.2207 30.3848 34.561 30.3848 33.5322C30.3848 32.5 30.9009 31.8472 31.7041 31.8472Z" fill="#232333"/>
</svg>
