<svg width="48" height="48" viewBox="0 0 48 48" fill="none" xmlns="http://www.w3.org/2000/svg">
<rect x="1" y="1" width="46" height="46" rx="23" fill="#F2F2F7"/>
<path d="M24.0879 25.3076C26.7773 25.3076 28.5967 23.5059 28.5967 20.8516C28.5967 18.3203 26.8389 16.6768 24.6943 16.6768C23.4111 16.6768 22.4707 17.1074 21.8906 17.8809H21.7412L22.1104 14.0664H27.9375V12.3174H20.5811L19.8691 19.6562H21.6709C22.1367 18.8037 23.0244 18.2852 24.1494 18.2852C25.6436 18.2852 26.6719 19.3311 26.6719 20.8955C26.6719 22.5039 25.6348 23.5762 24.0967 23.5762C22.7168 23.5762 21.6885 22.7676 21.5479 21.5371H19.667C19.79 23.752 21.5654 25.3076 24.0879 25.3076Z" fill="#232333"/>
<path d="M15.7832 34.5508C15.7832 35.5181 16.4463 36.1265 17.458 36.1265C18.5039 36.1265 19.1328 35.5317 19.1328 34.4688V31.0679H18.1006V34.4619C18.1006 34.9473 17.8682 35.2036 17.4443 35.2036C17.0479 35.2036 16.7881 34.9473 16.7812 34.5508H15.7832ZM23.1694 36V34.5132L23.6582 33.9355L25.0903 36H26.3276L24.4033 33.2314L26.2012 31.0679H25.0527L23.231 33.2656H23.1694V31.0679H22.1372V36H23.1694ZM32.1382 35.1011H29.9438V31.0679H28.9116V36H32.1382V35.1011Z" fill="#232333"/>
</svg>
