<svg width="48" height="48" viewBox="0 0 48 48" fill="none" xmlns="http://www.w3.org/2000/svg">
<rect x="1" y="1" width="46" height="46" rx="23" fill="#F2F2F7"/>
<path d="M24.0088 25.3076C26.9619 25.3076 28.6846 22.873 28.6846 18.6631C28.6846 14.4619 26.9355 12.0098 24.0088 12.0098C21.0645 12.0098 19.3154 14.4531 19.3154 18.6455C19.3154 22.8643 21.0469 25.3076 24.0088 25.3076ZM24.0088 23.585C22.2861 23.585 21.3018 21.8711 21.3018 18.6455C21.3018 15.4551 22.3037 13.7324 24.0088 13.7324C25.7139 13.7324 26.6982 15.4463 26.6982 18.6455C26.6982 21.8799 25.7314 23.585 24.0088 23.585Z" fill="#232333"/>
<path d="M24.7617 35.3809H27.041V33.8281H24.7617V31.4434H23.2324V33.8281H20.959V35.3809H23.2324V37.7656H24.7617V35.3809Z" fill="#232333"/>
</svg>
