<svg width="48" height="48" viewBox="0 0 48 48" fill="none" xmlns="http://www.w3.org/2000/svg">
<rect x="1" y="1" width="46" height="46" rx="23" fill="#F2F2F7"/>
<path fill-rule="evenodd" clip-rule="evenodd" d="M23.1562 16.844C23.1562 16.3779 23.5341 16 24.0002 16C24.4663 16 24.8442 16.3779 24.8442 16.844V30.3473C24.8442 30.8134 24.4663 31.1913 24.0002 31.1913C23.5341 31.1913 23.1562 30.8134 23.1562 30.3473V16.844Z" fill="#232333"/>
<path fill-rule="evenodd" clip-rule="evenodd" d="M29.4254 19.4888C29.829 19.2557 30.3452 19.394 30.5782 19.7977C30.8113 20.2013 30.673 20.7175 30.2693 20.9505L18.5751 27.7022C18.1714 27.9353 17.6552 27.797 17.4222 27.3933C17.1891 26.9896 17.3274 26.4735 17.7311 26.2404L29.4254 19.4888Z" fill="#232333"/>
<path fill-rule="evenodd" clip-rule="evenodd" d="M30.2691 26.2404C30.6728 26.4734 30.8111 26.9896 30.578 27.3932C30.345 27.7969 29.8288 27.9352 29.4251 27.7022L17.7309 20.9505C17.3272 20.7174 17.1889 20.2013 17.422 19.7976C17.655 19.3939 18.1712 19.2556 18.5749 19.4887L30.2691 26.2404Z" fill="#232333"/>
</svg>
