<svg width="48" height="48" viewBox="0 0 48 48" fill="none" xmlns="http://www.w3.org/2000/svg">
<rect x="1" y="1" width="46" height="46" rx="23" fill="#F2F2F7"/>
<path d="M20.6602 25H22.7256L28.2451 14.1016V12.3174H19.6055V14.0664H26.25V14.1982L20.6602 25Z" fill="#232333"/>
<path d="M11.9858 31.0679V36H13.0181V34.4688H13.9922C15.0312 34.4688 15.7524 33.7886 15.7524 32.7734C15.7524 31.748 15.0586 31.0679 14.0435 31.0679H11.9858ZM13.0181 31.9155H13.77C14.3647 31.9155 14.7031 32.2163 14.7031 32.7769C14.7031 33.3306 14.3579 33.6313 13.7666 33.6313H13.0181V31.9155ZM20.6641 36.1265C20.9785 36.1265 21.2725 36.082 21.5322 35.9932L21.9082 36.4819H22.8687L22.2124 35.6035C22.7354 35.1763 23.0327 34.4517 23.0327 33.5322C23.0327 31.9326 22.1133 30.9414 20.6641 30.9414C19.2148 30.9414 18.2886 31.9326 18.2886 33.5322C18.2886 35.1421 19.2046 36.1265 20.6641 36.1265ZM20.6675 35.2617C19.8472 35.2617 19.3174 34.5952 19.3174 33.5322C19.3174 32.4761 19.8472 31.8062 20.6641 31.8062C21.4775 31.8062 22.0039 32.4761 22.0039 33.5322C22.0039 34.0688 21.8638 34.5063 21.6108 34.7764L21.2793 34.356H20.3154L20.9717 35.2241C20.8726 35.2515 20.7734 35.2617 20.6675 35.2617ZM26.8472 31.9019H27.7427C28.2554 31.9019 28.5767 32.1958 28.5767 32.6641C28.5767 33.1392 28.2725 33.4194 27.7529 33.4194H26.8472V31.9019ZM26.8472 34.2124H27.6914L28.6108 36H29.7798L28.7407 34.0518C29.3081 33.8262 29.6362 33.2793 29.6362 32.6504C29.6362 31.6694 28.9697 31.0679 27.8862 31.0679H25.8149V36H26.8472V34.2124ZM32.2578 34.6294C32.2954 35.5488 33.0576 36.1265 34.2334 36.1265C35.4707 36.1265 36.2329 35.5181 36.2329 34.5234C36.2329 33.7578 35.8057 33.3306 34.8145 33.1221L34.2197 32.9956C33.6421 32.8726 33.4062 32.6982 33.4062 32.394C33.4062 32.0181 33.748 31.7788 34.2642 31.7788C34.7632 31.7788 35.1255 32.0386 35.1733 32.4282H36.144C36.1133 31.5498 35.3442 30.9414 34.2573 30.9414C33.1191 30.9414 32.3706 31.5532 32.3706 32.4829C32.3706 33.2349 32.8115 33.7031 33.7104 33.8911L34.353 34.0278C34.958 34.1577 35.2041 34.3389 35.2041 34.6533C35.2041 35.0259 34.8247 35.2856 34.2881 35.2856C33.707 35.2856 33.3037 35.0293 33.2559 34.6294H32.2578Z" fill="#232333"/>
</svg>
