<?xml version="1.0" encoding="utf-8"?>
<!-- Generator: Adobe Illustrator 24.0.3, SVG Export Plug-In . SVG Version: 6.00 Build 0)  -->
<svg version="1.1" id="Layer_1" xmlns="http://www.w3.org/2000/svg" xmlns:xlink="http://www.w3.org/1999/xlink" x="0px" y="0px"
	 viewBox="0 0 13.1 15" style="enable-background:new 0 0 13.1 15;" xml:space="preserve">
<style type="text/css">
	.st0{fill:#879BA4;}
</style>
<title>announce_icon</title>
<path class="st0" d="M6.5,1.5l4.7,8.3C10.5,9.6,9.7,9.5,9,9.5c-0.8,0.1-1.6,0.3-2.3,0.6c0.5,0.1,0.8,0.5,0.9,1
	c0,0.4-0.2,0.9-0.5,1.2l0.7,0.8l0.5,0.6c0.2,0.3,0.1,0.5-0.2,0.6c-0.3,0.3-0.7,0.5-1.1,0.6c-0.2,0.2-0.5,0.2-0.7,0
	c0,0-0.1-0.1-0.1-0.2l-0.9-1.2l-1.5-1.9H3.4c-0.4,0.2-0.9,0.1-1.2-0.2H2c-0.4,0.2-0.9,0.1-1.2-0.3c-0.2-0.4-0.4-0.8-0.7-1.2
	c-0.2-0.5-0.1-1,0.4-1.3c0.1,0,0.1-0.1,0.1-0.2C0.5,8,0.7,7.5,1.1,7.3l1.2-0.8C3.1,6.1,3.9,5.6,4.6,5c1-0.8,1.6-2,1.8-3.3L6.5,1.5
	L6.5,1.5z"/>
<path class="st0" d="M9.3,5.4L6.7,1.1C6.5,0.7,6.7,0.2,7,0c0,0,0,0,0.1,0c0.3-0.1,0.7,0.1,0.8,0.4l1.5,2.5C9.4,3,9.5,3,9.6,3
	c0.8-0.1,1.6,0.4,2,1.1c0.5,0.7,0.4,1.6-0.1,2.2c-0.1,0.1-0.1,0.2,0,0.2L13,9.1c0.1,0.3,0.1,0.7-0.2,0.9c-0.2,0.2-0.6,0.2-0.8,0
	l-0.2-0.2L9.3,5.4z"/>
</svg>
