<?xml version="1.0" encoding="UTF-8" standalone="no"?>
<svg
   xmlns:dc="http://purl.org/dc/elements/1.1/"
   xmlns:cc="http://creativecommons.org/ns#"
   xmlns:rdf="http://www.w3.org/1999/02/22-rdf-syntax-ns#"
   xmlns:svg="http://www.w3.org/2000/svg"
   xmlns="http://www.w3.org/2000/svg"
   id="svg8"
   version="1.1"
   viewBox="0 0 5.2916668 5.2916667"
   height="20"
   width="20">
  <defs
     id="defs2" />
  <metadata
     id="metadata5">
    <rdf:RDF>
      <cc:Work
         rdf:about="">
        <dc:format>image/svg+xml</dc:format>
        <dc:type
           rdf:resource="http://purl.org/dc/dcmitype/StillImage" />
        <dc:title></dc:title>
      </cc:Work>
    </rdf:RDF>
  </metadata>
  <g
     transform="translate(677.9313,-313.85407)"
     id="layer1">
    <path
       id="path21"
       d="m -675.46368,318.14722 c 0.61187,-0.10809 1.11724,-0.19753 1.12305,-0.19876 l 0.0105,-0.002 -0.57767,-0.68712 c -0.31771,-0.37791 -0.57766,-0.68858 -0.57766,-0.69037 0,-0.003 0.59648,-1.64599 0.59984,-1.65184 10e-4,-0.002 0.40705,0.69887 0.984,1.69885 0.54015,0.9362 0.98548,1.70809 0.98961,1.71533 l 0.008,0.0131 -1.83587,-2.4e-4 -1.83587,-2.4e-4 1.11249,-0.19652 z m -2.20325,-0.20952 c 0,-9.7e-4 0.27219,-0.47347 0.60487,-1.05001 l 0.60488,-1.04826 0.70491,-0.59156 c 0.3877,-0.32536 0.70596,-0.59197 0.70723,-0.59245 10e-4,-4.9e-4 -0.004,0.0123 -0.0113,0.0285 -0.008,0.0162 -0.35196,0.75498 -0.76544,1.64178 l -0.75178,1.61237 -0.54667,7.2e-4 c -0.30067,4.9e-4 -0.54667,-10e-5 -0.54667,-9.6e-4 z"
       style="fill:#0089d6;fill-opacity:1;stroke-width:0.00271671" />
  </g>
</svg>
