<?xml version="1.0" encoding="UTF-8"?>
<svg width="20px" height="20px" viewBox="0 0 20 20" version="1.1" xmlns="http://www.w3.org/2000/svg" xmlns:xlink="http://www.w3.org/1999/xlink">
    <!-- Generator: Sketch 60 (88103) - https://sketch.com -->
    <title>error-circle-icon</title>
    <desc>Created with Sketch.</desc>
    <g id="4" stroke="none" stroke-width="1" fill="none" fill-rule="evenodd">
        <g id="FU-new-19---fin" transform="translate(-425.000000, -261.000000)">
            <g id="error-circle-icon" transform="translate(426.000000, 262.000000)">
                <path d="M9,12 C8.572,12 8,12.548 8,13 C8,13.453 8.3459,14.6748 8.7739,14.6748 C9.2019,14.6748 9.8939,14.6748 10.3199,14.6748 C10.7459,14.6748 11,13.453 11,13 C11,12.548 10.426,12 10,12 L9,12 Z M9.5469,3.9998 C8.6929,3.9998 7.9999,4.7338 7.9999,5.6368 L7.9999,8.9108 C7.9999,9.8138 8.6929,10.5468 9.5469,10.5468 C10.3999,10.5468 11.0919,9.8138 11.0919,8.9108 L11.0919,5.6368 C11.0919,4.7338 10.3999,3.9998 9.5469,3.9998" id="Fill-1" fill="#D55555"></path>
                <circle id="Oval" stroke="#D55555" cx="9.5" cy="9.5" r="9.0"></circle>
            </g>
        </g>
    </g>
</svg>