<?xml version="1.0" encoding="UTF-8"?>
<svg width="20px" height="20px" viewBox="0 0 20 20" version="1.1" xmlns="http://www.w3.org/2000/svg" xmlns:xlink="http://www.w3.org/1999/xlink">
    <!-- Generator: Sketch 60 (88103) - https://sketch.com -->
    <title>integration-active</title>
    <desc>Created with Sketch.</desc>
    <g id="4" stroke="none" stroke-width="1" fill="none" fill-rule="evenodd">
        <g id="FU-new-17---fin" transform="translate(-426.000000, -263.000000)" fill="#33AEFD" fill-rule="nonzero">
            <path d="M441.749832,263 C443.002619,263 444.016008,264.018861 443.999808,265.275335 C443.983609,266.481407 443.009819,267.469666 441.805632,267.498468 C440.948841,267.520069 440.198249,267.059242 439.800453,266.378801 L439.800453,266.378801 L438.059872,266.378801 C437.811474,266.378801 437.609876,266.580413 437.609876,266.828828 L437.609876,266.828828 L437.609876,270.879069 L439.800453,270.879069 C440.189249,270.195028 440.916441,269.750402 441.749832,269.750402 C443.002619,269.750402 444.016008,270.769263 443.999808,272.025737 C443.983609,273.231809 443.009819,274.220068 441.805632,274.24887 C440.948841,274.270471 440.198249,273.809644 439.800453,273.129203 L439.800453,273.129203 L437.609876,273.129203 L437.609876,277.179444 C437.609876,277.427859 437.811474,277.629471 438.059872,277.629471 L438.059872,277.629471 L439.800453,277.629471 C440.189249,276.94543 440.916441,276.500804 441.749832,276.500804 C443.002619,276.500804 444.016008,277.519664 443.999808,278.776139 C443.983609,279.982211 443.009819,280.97047 441.805632,280.999272 C440.948841,281.020873 440.198249,280.560045 439.800453,279.879605 L439.800453,279.879605 L436.259891,279.879605 C435.763096,279.879605 435.3599,279.476381 435.3599,278.979551 L435.3599,278.979551 L435.3599,273.129203 L433.199923,273.129203 L433.199923,276.135382 C433.199923,276.632212 432.796728,277.035436 432.299933,277.035436 L432.299933,277.035436 L426.89999,277.035436 C426.403196,277.035436 426,276.632212 426,276.135382 L426,276.135382 L426,267.854889 C426,267.358059 426.403196,266.954835 426.89999,266.954835 L426.89999,266.954835 L432.299933,266.954835 C432.796728,266.954835 433.199923,267.358059 433.199923,267.854889 L433.199923,267.854889 L433.199923,270.879069 L435.3599,270.879069 L435.3599,265.01972 C435.3599,264.528291 435.759496,264.128667 436.250891,264.128667 L436.250891,264.128667 L439.800453,264.128667 C440.189249,263.444626 440.916441,263 441.749832,263 Z M430.499952,269.204969 L428.699971,269.204969 C428.451574,269.204969 428.249976,269.406581 428.249976,269.654996 L428.249976,269.654996 L428.249976,274.335275 C428.249976,274.58369 428.451574,274.785302 428.699971,274.785302 L428.699971,274.785302 L430.499952,274.785302 C430.748349,274.785302 430.949947,274.58369 430.949947,274.335275 L430.949947,274.335275 L430.949947,269.654996 C430.949947,269.406581 430.748349,269.204969 430.499952,269.204969 L430.499952,269.204969 Z" id="integration-active"></path>
        </g>
    </g>
</svg>