<?xml version="1.0" encoding="UTF-8"?>
<svg width="20px" height="20px" viewBox="0 0 20 20" version="1.1" xmlns="http://www.w3.org/2000/svg" xmlns:xlink="http://www.w3.org/1999/xlink">
    <!-- Generator: Sketch 60 (88103) - https://sketch.com -->
    <title>integration-inactive</title>
    <desc>Created with Sketch.</desc>
    <g id="4" stroke="none" stroke-width="1" fill="none" fill-rule="evenodd">
        <g id="FU-new-2" transform="translate(-202.000000, -1205.000000)" fill="#616161" fill-rule="nonzero">
            <path d="M217.749832,1205 C219.002619,1205 220.016008,1206.01886 219.999808,1207.27534 C219.983609,1208.48141 219.009819,1209.46967 217.805632,1209.49847 C216.948841,1209.52007 216.198249,1209.05924 215.800453,1208.3788 L215.800453,1208.3788 L214.059872,1208.3788 C213.811474,1208.3788 213.609876,1208.58041 213.609876,1208.82883 L213.609876,1208.82883 L213.609876,1212.87907 L215.800453,1212.87907 C216.189249,1212.19503 216.916441,1211.7504 217.749832,1211.7504 C219.002619,1211.7504 220.016008,1212.76926 219.999808,1214.02574 C219.983609,1215.23181 219.009819,1216.22007 217.805632,1216.24887 C216.948841,1216.27047 216.198249,1215.80964 215.800453,1215.1292 L215.800453,1215.1292 L213.609876,1215.1292 L213.609876,1219.17944 C213.609876,1219.42786 213.811474,1219.62947 214.059872,1219.62947 L214.059872,1219.62947 L215.800453,1219.62947 C216.189249,1218.94543 216.916441,1218.5008 217.749832,1218.5008 C219.002619,1218.5008 220.016008,1219.51966 219.999808,1220.77614 C219.983609,1221.98221 219.009819,1222.97047 217.805632,1222.99927 C216.948841,1223.02087 216.198249,1222.56005 215.800453,1221.8796 L215.800453,1221.8796 L212.259891,1221.8796 C211.763096,1221.8796 211.3599,1221.47638 211.3599,1220.97955 L211.3599,1220.97955 L211.3599,1215.1292 L209.199923,1215.1292 L209.199923,1218.13538 C209.199923,1218.63221 208.796728,1219.03544 208.299933,1219.03544 L208.299933,1219.03544 L202.89999,1219.03544 C202.403196,1219.03544 202,1218.63221 202,1218.13538 L202,1218.13538 L202,1209.85489 C202,1209.35806 202.403196,1208.95484 202.89999,1208.95484 L202.89999,1208.95484 L208.299933,1208.95484 C208.796728,1208.95484 209.199923,1209.35806 209.199923,1209.85489 L209.199923,1209.85489 L209.199923,1212.87907 L211.3599,1212.87907 L211.3599,1207.01972 C211.3599,1206.52829 211.759496,1206.12867 212.250891,1206.12867 L212.250891,1206.12867 L215.800453,1206.12867 C216.189249,1205.44463 216.916441,1205 217.749832,1205 Z M206.499952,1211.20497 L204.699971,1211.20497 C204.451574,1211.20497 204.249976,1211.40658 204.249976,1211.655 L204.249976,1211.655 L204.249976,1216.33527 C204.249976,1216.58369 204.451574,1216.7853 204.699971,1216.7853 L204.699971,1216.7853 L206.499952,1216.7853 C206.748349,1216.7853 206.949947,1216.58369 206.949947,1216.33527 L206.949947,1216.33527 L206.949947,1211.655 C206.949947,1211.40658 206.748349,1211.20497 206.499952,1211.20497 L206.499952,1211.20497 Z" id="integration-inactive"></path>
        </g>
    </g>
</svg>