<?xml version="1.0" encoding="utf-8"?>
<!-- Generator: Adobe Illustrator 24.0.3, SVG Export Plug-In . SVG Version: 6.00 Build 0)  -->
<svg version="1.1" id="Layer_1" xmlns="http://www.w3.org/2000/svg" xmlns:xlink="http://www.w3.org/1999/xlink" x="0px" y="0px"
	 viewBox="0 0 60 60" style="enable-background:new 0 0 60 60;" xml:space="preserve">
<style type="text/css">
	.st0{fill-rule:evenodd;clip-rule:evenodd;fill:url(#non-native_msg_bg_1_);}
	.st1{fill:none;stroke:url(#Stroke-1_2_);stroke-linecap:round;stroke-linejoin:round;}
	.st2{fill:none;stroke:url(#Stroke-1_3_);stroke-linecap:round;stroke-linejoin:round;}
	.st3{fill:none;stroke:url(#Stroke-6271_1_);stroke-linecap:round;stroke-linejoin:round;}
</style>
<title>non-native_msg_spot</title>
<desc>Created with Sketch.</desc>
<g id="non-native_msg_spot" transform="translate(202.000000, 1198.000000)">
	
		<linearGradient id="non-native_msg_bg_1_" gradientUnits="userSpaceOnUse" x1="-187.0798" y1="-1152.8389" x2="-186.4412" y2="-1153.6349" gradientTransform="matrix(60 0 0 -60 11033 -70363)">
		<stop  offset="0" style="stop-color:#E6F5FE"/>
		<stop  offset="1" style="stop-color:#CDEBFC"/>
	</linearGradient>
	<circle id="non-native_msg_bg" class="st0" cx="-172" cy="-1168" r="30"/>
	
		<linearGradient id="Stroke-1_2_" gradientUnits="userSpaceOnUse" x1="-187.0791" y1="-1152.874" x2="-187.627" y2="-1152.395" gradientTransform="matrix(17.2741 0 0 -16.7631 3059.5923 -20489.7695)">
		<stop  offset="0" style="stop-color:#0197EC"/>
		<stop  offset="1" style="stop-color:#38B7FF"/>
	</linearGradient>
	<path id="Stroke-1" class="st1" d="M-168.4-1175.3c-1.3-1-3-1.6-4.8-1.6c-4.4,0-7.9,3.6-7.9,7.9c0,0.4,0,0.8,0.1,1.1
		c0,0-0.1,0-0.1,0c-2.5,0-4.5,2-4.5,4.5c0,1.2,0.5,2.3,1.3,3.2"/>
	
		<linearGradient id="Stroke-1_3_" gradientUnits="userSpaceOnUse" x1="-186.805" y1="-1152.4517" x2="-187.3529" y2="-1152.2363" gradientTransform="matrix(17.4255 0 0 -11.3407 3096.5745 -14230.9473)">
		<stop  offset="0" style="stop-color:#0197EC"/>
		<stop  offset="1" style="stop-color:#38B7FF"/>
	</linearGradient>
	<path id="Stroke-1_1_" class="st2" d="M-177-1158.8h11.8c3.1,0,5.7-2.5,5.7-5.7c0-3.1-2.5-5.7-5.7-5.7"/>
	
		<linearGradient id="Stroke-6271_1_" gradientUnits="userSpaceOnUse" x1="-185.7986" y1="-1131.7902" x2="-186.3466" y2="-1131.7875" gradientTransform="matrix(18.8389 -18.8389 -0.7071 -0.7071 2539.8196 -5480.1372)">
		<stop  offset="0" style="stop-color:#0197EC"/>
		<stop  offset="1" style="stop-color:#38B7FF"/>
	</linearGradient>
	<line id="Stroke-6271" class="st3" x1="-182.8" y1="-1157" x2="-163.9" y2="-1175.8"/>
</g>
</svg>
